<svg t="1780834993224" class="icon" viewBox="0 0 1024 1024" version="1.1" xmlns="http://www.w3.org/2000/svg" p-id="22394" width="200" height="200"><path d="M487.584 96.672a414.464 414.464 0 0 1 290.24 95.584L310.208 660.096c87.584-98.656 175.04-197.344 262.592-296.064 0.64-0.832 1.504-1.6 2.144-2.432 3.168-3.52 6.848-8.192 10.208-13.984 3.072-5.12 5.184-9.824 6.72-14.016a56.96 56.96 0 0 0-41.92-69.056l-0.608-0.064c-0.736-0.224-1.6-0.288-2.304-0.384-1.504-0.256-3.168-0.608-4.736-0.64-0.64 0-1.12-0.224-1.696-0.224-0.384 0-0.832-0.192-1.216 0a250.24 250.24 0 0 0-277.952 248.96c0 55.52 18.048 106.88 48.608 148.352a254.016 254.016 0 0 0 50.4 51.232 248.512 248.512 0 0 0 151.232 50.912 250.368 250.368 0 0 0 250.336-250.496c0-50.208-14.784-96.928-40.256-136.064a22.816 22.816 0 0 1 2.88-28.736L828.8 243.2l-0.128-0.128C861.76 209.92 894.88 176.832 928 143.808c-15.04 16.64-38.208 45.568-52.8 82.336-9.792 24.64-10.816 40.256-9.6 52.544 0.992 10.56 3.712 19.104 5.92 24.864l-1.312-1.92a414.432 414.432 0 0 1 57.248 220.672l-0.064-0.128c-5.12 215.712-177.984 393.984-393.28 405.216a414.112 414.112 0 0 1-291.264-98.176 415.424 415.424 0 0 1-146.144-341.408C108.48 278.336 278.112 108.48 487.552 96.672z" fill="#1296db" p-id="22395"></path><path d="M871.68 303.808h-0.032v0.064l-0.128-0.32 0.192 0.256z" fill="#1296db" p-id="22396"></path></svg>